<?xml version="1.0" encoding="UTF-8"?>
<!DOCTYPE svg PUBLIC "-//W3C//DTD SVG 1.1//EN" "http://www.w3.org/Graphics/SVG/1.1/DTD/svg11.dtd">
<svg version="1.2" width="280mm" height="210mm" viewBox="0 0 28000 21000" preserveAspectRatio="xMidYMid" fill-rule="evenodd" stroke-width="28.222" stroke-linejoin="round" xmlns="http://www.w3.org/2000/svg" xmlns:ooo="http://xml.openoffice.org/svg/export" xmlns:xlink="http://www.w3.org/1999/xlink" xmlns:presentation="http://sun.com/xmlns/staroffice/presentation" xmlns:smil="http://www.w3.org/2001/SMIL20/" xmlns:anim="urn:oasis:names:tc:opendocument:xmlns:animation:1.0" xml:space="preserve">
 <defs class="ClipPathGroup">
  <clipPath id="presentation_clip_path" clipPathUnits="userSpaceOnUse">
   <rect x="0" y="0" width="28000" height="21000"/>
  </clipPath>
 </defs>
 <defs class="TextShapeIndex">
  <g ooo:slide="id1" ooo:id-list="id3 id4"/>
 </defs>
 <defs class="EmbeddedBulletChars">
  <g id="bullet-char-template(57356)" transform="scale(0.00048828125,-0.00048828125)">
   <path d="M 580,1141 L 1163,571 580,0 -4,571 580,1141 Z"/>
  </g>
  <g id="bullet-char-template(57354)" transform="scale(0.00048828125,-0.00048828125)">
   <path d="M 8,1128 L 1137,1128 1137,0 8,0 8,1128 Z"/>
  </g>
  <g id="bullet-char-template(10146)" transform="scale(0.00048828125,-0.00048828125)">
   <path d="M 174,0 L 602,739 174,1481 1456,739 174,0 Z M 1358,739 L 309,1346 659,739 1358,739 Z"/>
  </g>
  <g id="bullet-char-template(10132)" transform="scale(0.00048828125,-0.00048828125)">
   <path d="M 2015,739 L 1276,0 717,0 1260,543 174,543 174,936 1260,936 717,1481 1274,1481 2015,739 Z"/>
  </g>
  <g id="bullet-char-template(10007)" transform="scale(0.00048828125,-0.00048828125)">
   <path d="M 0,-2 C -7,14 -16,27 -25,37 L 356,567 C 262,823 215,952 215,954 215,979 228,992 255,992 264,992 276,990 289,987 310,991 331,999 354,1012 L 381,999 492,748 772,1049 836,1024 860,1049 C 881,1039 901,1025 922,1006 886,937 835,863 770,784 769,783 710,716 594,584 L 774,223 C 774,196 753,168 711,139 L 727,119 C 717,90 699,76 672,76 641,76 570,178 457,381 L 164,-76 C 142,-110 111,-127 72,-127 30,-127 9,-110 8,-76 1,-67 -2,-52 -2,-32 -2,-23 -1,-13 0,-2 Z"/>
  </g>
  <g id="bullet-char-template(10004)" transform="scale(0.00048828125,-0.00048828125)">
   <path d="M 285,-33 C 182,-33 111,30 74,156 52,228 41,333 41,471 41,549 55,616 82,672 116,743 169,778 240,778 293,778 328,747 346,684 L 369,508 C 377,444 397,411 428,410 L 1163,1116 C 1174,1127 1196,1133 1229,1133 1271,1133 1292,1118 1292,1087 L 1292,965 C 1292,929 1282,901 1262,881 L 442,47 C 390,-6 338,-33 285,-33 Z"/>
  </g>
  <g id="bullet-char-template(9679)" transform="scale(0.00048828125,-0.00048828125)">
   <path d="M 813,0 C 632,0 489,54 383,161 276,268 223,411 223,592 223,773 276,916 383,1023 489,1130 632,1184 813,1184 992,1184 1136,1130 1245,1023 1353,916 1407,772 1407,592 1407,412 1353,268 1245,161 1136,54 992,0 813,0 Z"/>
  </g>
  <g id="bullet-char-template(8226)" transform="scale(0.00048828125,-0.00048828125)">
   <path d="M 346,457 C 273,457 209,483 155,535 101,586 74,649 74,723 74,796 101,859 155,911 209,963 273,989 346,989 419,989 480,963 531,910 582,859 608,796 608,723 608,648 583,586 532,535 482,483 420,457 346,457 Z"/>
  </g>
  <g id="bullet-char-template(8211)" transform="scale(0.00048828125,-0.00048828125)">
   <path d="M -4,459 L 1135,459 1135,606 -4,606 -4,459 Z"/>
  </g>
 </defs>
 <defs class="TextEmbeddedBitmaps"/>
 <g>
  <g id="id2" class="Master_Slide">
   <g id="bg-id2" class="Background"/>
   <g id="bo-id2" class="BackgroundObjects"/>
  </g>
 </g>
 <g class="SlideGroup">
  <g>
   <g id="id1" class="Slide" clip-path="url(#presentation_clip_path)">
    <g class="Page">
     <g class="com.sun.star.drawing.CustomShape">
      <g id="id3">
       <rect class="BoundingBox" stroke="none" fill="none" x="3290" y="3150" width="21421" height="5980"/>
       <path fill="rgb(255,255,204)" stroke="none" d="M 6408,7464 L 5382,7464 5125,8222 6151,8222 6408,7464 Z M 6921,5950 L 5894,5950 5638,6707 6664,6707 6921,5950 Z M 6921,8979 L 3500,8979 4783,5193 8205,5193 8076,5572 8418,5572 8033,6707 7691,6707 7434,7465 7776,7465 7392,8601 7049,8601 6921,8979 Z M 8889,5193 L 12310,5193 12053,5950 11027,5950 10257,8222 11284,8222 11027,8979 7605,8979 7862,8222 8889,8222 9659,5950 8632,5950 8889,5193 Z M 14278,7464 L 12225,7464 12353,7086 12011,7086 12524,5572 12867,5572 12994,5193 16416,5193 16159,5950 13764,5950 13508,6707 15561,6707 15433,7086 15774,7086 15261,8600 14919,8600 14791,8979 11369,8979 11626,8222 14021,8222 14278,7464 Z M 18255,4815 L 17571,4815 17956,3679 18298,3679 18426,3300 19110,3300 18982,3679 19324,3679 19196,4057 19538,4057 19794,3300 20479,3300 20095,4436 19752,4436 19624,4814 18940,4814 19068,4436 18725,4436 18854,4057 18512,4057 18255,4815 Z M 18897,5950 L 17870,5950 17614,6707 18640,6707 18897,5950 Z M 16843,8979 L 15475,8979 16630,5572 16972,5572 17100,5193 20180,5193 20051,5572 20394,5572 19239,8979 17870,8979 18384,7464 17357,7464 16843,8979 Z M 23130,8601 L 23002,8979 19923,8979 20051,8601 19709,8601 20735,5572 21078,5572 21206,5193 24286,5193 24157,5572 24500,5572 23473,8601 23130,8601 Z M 21206,8222 L 22233,8222 23002,5950 21976,5950 21206,8222 Z"/>
       <path fill="none" stroke="rgb(0,0,0)" stroke-width="300" stroke-linejoin="miter" stroke-linecap="square" d="M 6408,7464 L 5382,7464 5125,8222 6151,8222 6408,7464 Z"/>
       <path fill="none" stroke="rgb(0,0,0)" stroke-width="300" stroke-linejoin="miter" stroke-linecap="square" d="M 6921,5950 L 5894,5950 5638,6707 6664,6707 6921,5950 Z"/>
       <path fill="none" stroke="rgb(0,0,0)" stroke-width="300" stroke-linejoin="miter" stroke-linecap="square" d="M 6921,8979 L 3500,8979 4783,5193 8205,5193 8076,5572 8418,5572 8033,6707 7691,6707 7434,7465 7776,7465 7392,8601 7049,8601 6921,8979 Z"/>
       <path fill="none" stroke="rgb(0,0,0)" stroke-width="300" stroke-linejoin="miter" stroke-linecap="square" d="M 8889,5193 L 12310,5193 12053,5950 11027,5950 10257,8222 11284,8222 11027,8979 7605,8979 7862,8222 8889,8222 9659,5950 8632,5950 8889,5193 Z"/>
       <path fill="none" stroke="rgb(0,0,0)" stroke-width="300" stroke-linejoin="miter" stroke-linecap="square" d="M 14278,7464 L 12225,7464 12353,7086 12011,7086 12524,5572 12867,5572 12994,5193 16416,5193 16159,5950 13764,5950 13508,6707 15561,6707 15433,7086 15774,7086 15261,8600 14919,8600 14791,8979 11369,8979 11626,8222 14021,8222 14278,7464 Z"/>
       <path fill="none" stroke="rgb(0,0,0)" stroke-width="300" stroke-linejoin="miter" stroke-linecap="square" d="M 18255,4815 L 17571,4815 17956,3679 18298,3679 18426,3300 19110,3300 18982,3679 19324,3679 19196,4057 19538,4057 19794,3300 20479,3300 20095,4436 19752,4436 19624,4814 18940,4814 19068,4436 18725,4436 18854,4057 18512,4057 18255,4815 Z"/>
       <path fill="none" stroke="rgb(0,0,0)" stroke-width="300" stroke-linejoin="miter" stroke-linecap="square" d="M 18897,5950 L 17870,5950 17614,6707 18640,6707 18897,5950 Z"/>
       <path fill="none" stroke="rgb(0,0,0)" stroke-width="300" stroke-linejoin="miter" stroke-linecap="square" d="M 16843,8979 L 15475,8979 16630,5572 16972,5572 17100,5193 20180,5193 20051,5572 20394,5572 19239,8979 17870,8979 18384,7464 17357,7464 16843,8979 Z"/>
       <path fill="none" stroke="rgb(0,0,0)" stroke-width="300" stroke-linejoin="miter" stroke-linecap="square" d="M 23130,8601 L 23002,8979 19923,8979 20051,8601 19709,8601 20735,5572 21078,5572 21206,5193 24286,5193 24157,5572 24500,5572 23473,8601 23130,8601 Z"/>
       <path fill="none" stroke="rgb(0,0,0)" stroke-width="300" stroke-linejoin="miter" stroke-linecap="square" d="M 21206,8222 L 22233,8222 23002,5950 21976,5950 21206,8222 Z"/>
      </g>
     </g>
     <g class="com.sun.star.drawing.CustomShape">
      <g id="id4">
       <rect class="BoundingBox" stroke="none" fill="none" x="994" y="9550" width="25917" height="7199"/>
       <path fill="rgb(255,255,204)" stroke="none" d="M 4399,13838 L 3404,13838 2525,16598 1200,16598 3399,9700 6712,9700 6492,10389 6823,10389 6163,12459 5832,12459 5392,13838 5723,13838 4845,16598 3519,16598 4399,13838 Z M 5278,11078 L 4284,11078 3844,12459 4838,12459 5278,11078 Z M 6941,15219 L 7935,15219 9694,9700 11019,9700 9041,15909 8708,15909 8490,16598 5507,16598 5727,15909 5396,15909 7375,9700 8700,9700 6941,15219 Z M 13011,11770 L 13670,9700 14995,9700 12797,16598 11471,16598 12131,14530 11800,14530 12020,13838 11689,13838 11908,13149 11576,13149 10478,16598 9152,16598 11351,9700 12676,9700 12456,10389 12787,10389 12567,11078 12899,11078 12678,11770 13011,11770 Z M 16987,11770 L 17647,9700 18971,9700 16773,16598 15447,16598 16107,14530 15776,14530 15996,13838 15665,13838 15885,13149 15552,13149 14454,16598 13128,16598 15327,9700 16652,9700 16432,10389 16763,10389 16544,11078 16876,11078 16655,11770 16987,11770 Z M 19748,12459 L 20743,12459 20303,13838 19309,13838 18869,15219 21189,15219 20749,16598 17435,16598 17655,15909 17324,15909 19084,10389 19415,10389 19635,9700 22948,9700 22508,11078 20189,11078 19748,12459 Z M 24279,13838 L 23285,13838 22406,16598 21080,16598 23280,9700 26593,9700 26373,10389 26704,10389 26044,12459 25713,12459 25273,13838 25604,13838 24725,16598 23399,16598 24279,13838 Z M 25159,11078 L 24165,11078 23725,12459 24719,12459 25159,11078 Z"/>
       <path fill="none" stroke="rgb(0,0,0)" stroke-width="300" stroke-linejoin="miter" stroke-linecap="square" d="M 4399,13838 L 3404,13838 2525,16598 1200,16598 3399,9700 6712,9700 6492,10389 6823,10389 6163,12459 5832,12459 5392,13838 5723,13838 4845,16598 3519,16598 4399,13838 Z"/>
       <path fill="none" stroke="rgb(0,0,0)" stroke-width="300" stroke-linejoin="miter" stroke-linecap="square" d="M 5278,11078 L 4284,11078 3844,12459 4838,12459 5278,11078 Z"/>
       <path fill="none" stroke="rgb(0,0,0)" stroke-width="300" stroke-linejoin="miter" stroke-linecap="square" d="M 6941,15219 L 7935,15219 9694,9700 11019,9700 9041,15909 8708,15909 8490,16598 5507,16598 5727,15909 5396,15909 7375,9700 8700,9700 6941,15219 Z"/>
       <path fill="none" stroke="rgb(0,0,0)" stroke-width="300" stroke-linejoin="miter" stroke-linecap="square" d="M 13011,11770 L 13670,9700 14995,9700 12797,16598 11471,16598 12131,14530 11800,14530 12020,13838 11689,13838 11908,13149 11576,13149 10478,16598 9152,16598 11351,9700 12676,9700 12456,10389 12787,10389 12567,11078 12899,11078 12678,11770 13011,11770 Z"/>
       <path fill="none" stroke="rgb(0,0,0)" stroke-width="300" stroke-linejoin="miter" stroke-linecap="square" d="M 16987,11770 L 17647,9700 18971,9700 16773,16598 15447,16598 16107,14530 15776,14530 15996,13838 15665,13838 15885,13149 15552,13149 14454,16598 13128,16598 15327,9700 16652,9700 16432,10389 16763,10389 16544,11078 16876,11078 16655,11770 16987,11770 Z"/>
       <path fill="none" stroke="rgb(0,0,0)" stroke-width="300" stroke-linejoin="miter" stroke-linecap="square" d="M 19748,12459 L 20743,12459 20303,13838 19309,13838 18869,15219 21189,15219 20749,16598 17435,16598 17655,15909 17324,15909 19084,10389 19415,10389 19635,9700 22948,9700 22508,11078 20189,11078 19748,12459 Z"/>
       <path fill="none" stroke="rgb(0,0,0)" stroke-width="300" stroke-linejoin="miter" stroke-linecap="square" d="M 24279,13838 L 23285,13838 22406,16598 21080,16598 23280,9700 26593,9700 26373,10389 26704,10389 26044,12459 25713,12459 25273,13838 25604,13838 24725,16598 23399,16598 24279,13838 Z"/>
       <path fill="none" stroke="rgb(0,0,0)" stroke-width="300" stroke-linejoin="miter" stroke-linecap="square" d="M 25159,11078 L 24165,11078 23725,12459 24719,12459 25159,11078 Z"/>
      </g>
     </g>
    </g>
   </g>
  </g>
 </g>
</svg>